<?xml version="1.0" encoding="UTF-8"?>
<svg id="Layer_2" xmlns="http://www.w3.org/2000/svg" version="1.1" viewBox="0 0 506 101.4">
  <!-- Generator: Adobe Illustrator 29.5.0, SVG Export Plug-In . SVG Version: 2.1.0 Build 137)  -->
  <defs>
    <style>
      .st0 {
        fill: #fff;
      }

      .st1 {
        fill: #b9a87b;
      }
    </style>
  </defs>
  <g id="Layer_1-2">
    <g>
      <g>
        <path class="st0" d="M7.6,71.2c-2.5-1.8-4.2-2.9-4.2-5.3s1.3-3.1,3.4-3.1,2.7.2,4.3,2.7h.3v-3.2c-.3-.1-1.8-.7-4.3-.7-3.8,0-6.3,2.1-6.3,5.3s1.8,4.7,5.2,6.9c2.8,1.9,4.2,3.2,4.2,5.6s-1.6,3.8-3.9,3.8-4.8-2-5.8-5.7H0v5.4c1,.6,3,1.6,6.1,1.6s6.7-2.5,6.7-6.2-2.4-5.1-5.2-7.1h0Z"/>
        <polygon class="st0" points="326 62.2 327.4 63.8 327.4 82.3 326 83.9 326 84.2 332 84.2 332 83.9 330.5 82.3 330.5 63.8 332 62.2 332 62 326 62 326 62.2"/>
        <path class="st0" d="M353.5,79.6h0c-2,2.4-4.3,3.7-7,3.7-5,0-8.7-4.5-8.7-10.4s2.9-10,8.4-10,5.1,1.2,6.7,3.4h0s.3,0,.3,0v-3.7h0c-1.6-.5-4-1-6.8-1s-6.6,1.2-8.8,3.5c-2.1,2.1-3.2,5-3.2,8.1,0,6.6,5,11.3,12,11.3s7-1.4,7.3-1.5h0v-3.4h-.3Z"/>
        <path class="st0" d="M286.5,62h-4.4v.3l1.5,1.6v12.4c0,3.8-2.5,6.3-6.4,6.3s-6.8-2.2-6.8-6.3v-12.4l1.5-1.6v-.3h-6v.3l1.5,1.6v12.4c0,5.2,3.4,8.2,9.3,8.2s8.4-3.4,8.4-8.2v-12.5l1.5-1.6v-.3h0Z"/>
        <polygon class="st0" points="89.8 64.7 89.8 82.3 88.3 83.9 88.3 84.2 92.7 84.2 92.7 83.9 91.3 82.3 91.3 66.4 107 84.2 108.2 84.2 108.2 63.8 109.6 62.2 109.6 62 105.3 62 105.3 62.2 106.7 63.8 106.7 79.3 91.4 62 87.2 62 87.2 62.2 89.8 64.7"/>
        <polygon class="st0" points="322.7 78.7 319.8 82.9 312.2 82.9 312.2 63.8 313.7 62.2 313.7 62 307.7 62 307.7 62.2 309.1 63.8 309.1 82.3 307.7 83.9 307.7 84.2 323 84.2 323 78.7 322.7 78.7"/>
        <polygon class="st0" points="57.9 82.3 56.4 83.9 56.4 84.2 62.4 84.2 62.4 83.9 61 82.3 61 63.8 62.4 62.2 62.4 62 56.4 62 56.4 62.2 57.9 63.8 57.9 82.3"/>
        <polygon class="st0" points="28.3 62 28.3 62.2 29.7 63.8 24.4 72 19 63.8 20.5 62.2 20.5 62 13.6 62 13.6 62.2 15.5 63.8 22.1 73.7 22.1 82.3 20.6 83.9 20.6 84.2 26.6 84.2 26.6 83.9 25.2 82.3 25.1 73.2 31.2 63.9 33.1 62.2 33.1 62 28.3 62"/>
        <path class="st0" d="M256.2,62h-7.2v.3l1.4,1.6v18.4l-1.4,1.6v.3h6v-.3l-1.4-1.6v-19.2h1.5c3.6,0,5.8,2,5.8,5.4s-.2,4.9-5.9,5.8v.4c5.3,0,9-2.1,9-6.6s-3-6.2-7.7-6.2h0Z"/>
        <polygon class="st0" points="245.3 79.4 243 82.9 235.4 82.9 235.4 72.9 242.2 72.9 244 74.5 244.3 74.5 244.3 70.1 244 70.1 242.2 71.7 235.4 71.7 235.4 63.2 242.3 63.2 244.5 66 244.8 66 244.8 62 230.9 62 230.9 62.2 232.3 63.8 232.3 82.3 230.9 83.9 230.9 84.2 245.6 84.2 245.6 79.4 245.3 79.4"/>
        <path class="st0" d="M155.9,79l-3.2-5.4c.7-.4,1.3-.8,1.8-1.4,1.6-1.9,2.1-4.5,1.1-6.7-1-2.2-3.3-3.5-6.2-3.5h-7.6v.3l1.4,1.6v18.4l-1.4,1.6v.3h6v-.3l-1.4-1.6v-7.9h3.1c.1,0,.2,0,.4,0l3.6,6.1c2.4,4.3,4.9,4.1,7.2,3.6v-.3c-.8-.3-2.2-.8-4.6-4.9h0ZM149.2,73.3h-3v-10.2h2.1c3.4,0,4.7,2.7,4.7,5.1s-1.3,5.1-3.8,5.1h0Z"/>
        <polygon class="st0" points="83.9 82.3 76.8 62 73.2 62 66.7 82.3 65.3 83.9 65.3 84.2 69.6 84.2 69.6 83.9 68.1 82.3 74.2 63.4 77.8 73.6 70.8 73.6 71.1 74.8 78.2 74.8 80.8 82.3 79.3 83.9 79.3 84.2 85.3 84.2 85.3 83.9 83.9 82.3"/>
        <polygon class="st0" points="138 82.3 130.9 62 127.4 62 120.8 82.3 119.4 83.9 119.4 84.2 123.7 84.2 123.7 83.9 122.3 82.3 128.3 63.4 131.9 73.6 125 73.6 125.2 74.8 132.3 74.8 134.9 82.3 133.5 83.9 133.5 84.2 139.5 84.2 139.5 83.9 138 82.3"/>
        <polygon class="st0" points="180.1 82.3 173 62 169.5 62 162.9 82.3 161.5 83.9 161.5 84.2 165.8 84.2 165.8 83.9 164.4 82.3 170.4 63.4 174 73.6 167.1 73.6 167.3 74.8 174.4 74.8 177 82.3 175.6 83.9 175.6 84.2 181.6 84.2 181.6 83.9 180.1 82.3"/>
        <path class="st0" d="M49.8,79l-3.2-5.4c.7-.4,1.3-.8,1.8-1.4,1.6-1.9,2.1-4.5,1.1-6.7-1-2.2-3.3-3.5-6.2-3.5h-7.5v.3l1.5,1.6v18.4l-1.5,1.6v.3h6v-.3l-1.4-1.6v-19.2h2.1c3.4,0,4.7,2.7,4.7,5.1s-1.3,5.1-3.8,5.1h-3l.7,1.1h2.5c.1,0,.2,0,.3,0l3.6,6.1c2.4,4.3,4.9,4.1,7.2,3.6v-.3c-.8-.3-2.2-.8-4.6-4.9h0Z"/>
        <path class="st0" d="M224.1,79l-3.2-5.4c.7-.4,1.3-.8,1.8-1.4,1.6-1.9,2.1-4.5,1.1-6.7-1-2.2-3.3-3.5-6.2-3.5h-7.6v.3l1.4,1.6v18.4l-1.4,1.6v.3h6v-.3l-1.4-1.6v-19.2h2.1c3.4,0,4.7,2.7,4.7,5.1s-1.3,5.1-3.8,5.1h-3l.6,1.1h2.5c.1,0,.2,0,.4,0l3.6,6.1c2.4,4.3,4.9,4.1,7.2,3.6v-.3c-.8-.3-2.2-.8-4.6-4.9h0Z"/>
        <path class="st0" d="M193.7,72.1c2.4-.9,4.1-3.6,3.7-6.1-.2-1.2-1.2-4-6.6-4h-7v.3l1.4,1.6v18.4l-1.4,1.6v.3h7.6c5.1,0,7.9-3.1,8-6.2.1-2.6-1.6-5.3-5.8-5.8h0ZM190.2,63.1c1.4,0,2.6.4,3.3,1.2.8.9,1,2,1,2.8,0,2.3-1.4,4.8-3.3,4.8h-2.8v-8.9h1.9ZM191.5,83c-1.4,0-2.5-.3-3.2-.6v-10.3l.6,1.1h1.8c1.8,0,3.2.5,4.2,1.5.8.8,1.3,2,1.3,3.2,0,2.5-1.8,5.1-4.8,5.1h0Z"/>
        <path class="st0" d="M299.5,72.1c2.5-.9,4.1-3.6,3.7-6.1-.2-1.2-1.2-4-6.6-4h-7v.3l1.5,1.6v18.4l-1.5,1.6v.3h7.6c5.1,0,7.9-3.1,8-6.2.1-2.6-1.6-5.3-5.8-5.8h0ZM296,63.1c1.5,0,2.6.4,3.3,1.2.8.9,1,2,1,2.8,0,2.3-1.4,4.8-3.3,4.8h-2.8v-8.9h1.9ZM297.3,83c-1.4,0-2.5-.3-3.2-.6v-10.3l.6,1.1h1.8c1.8,0,3.2.5,4.2,1.5.8.8,1.3,2,1.3,3.2,0,2.5-1.8,5.1-4.8,5.1h0Z"/>
      </g>
      <g>
        <polygon class="st0" points="319.9 44 319.9 44.2 321.9 46.2 322.2 46.2 324.2 44.2 324.2 44 322.2 42 321.9 42 319.9 44"/>
        <g>
          <polygon class="st0" points="243.9 42 241.9 44 241.9 44.2 243.9 46.2 244.2 46.2 246.2 44.2 246.2 44 244.2 42 243.9 42"/>
          <polygon class="st0" points="241.2 44.2 241.2 44 239.2 42 239 42 237 44 237 44.2 239 46.2 239.2 46.2 241.2 44.2"/>
        </g>
        <g>
          <polygon class="st0" points="230.6 21.8 232.6 19.8 232.6 19.5 230.6 17.5 230.4 17.5 228.4 19.5 228.4 19.8 230.4 21.8 230.6 21.8"/>
          <polygon class="st0" points="225.7 21.8 227.7 19.8 227.7 19.5 225.7 17.5 225.4 17.5 223.4 19.5 223.4 19.8 225.4 21.8 225.7 21.8"/>
        </g>
        <polygon class="st0" points="349.2 37.1 347.8 38.7 347.8 39 353.8 39 353.8 38.7 352.3 37.1 352.3 18.7 353.8 17.1 353.8 16.8 347.8 16.8 347.8 17.1 349.2 18.7 349.2 37.1"/>
        <path class="st0" d="M252.5,24.1h4.5v.3l-1.4,1.6v13.1c0,5.6-3.6,7.7-7.8,6.9v-1.1c2.9.5,4.7-1.7,4.7-5.5v-15.3h0Z"/>
        <polygon class="st0" points="105.2 37.1 103.8 38.7 103.8 39 109.8 39 109.8 38.7 108.3 37.1 108.3 18.7 109.8 17.1 109.8 16.8 103.8 16.8 103.8 17.1 105.2 18.7 105.2 37.1"/>
        <g>
          <polygon class="st0" points="25.9 42 23.9 44 23.9 44.2 25.9 46.2 26.2 46.2 28.2 44.2 28.2 44 26.2 42 25.9 42"/>
          <polygon class="st0" points="23.2 44.2 23.2 44 21.2 42 21 42 19 44 19 44.2 21 46.2 21.2 46.2 23.2 44.2"/>
        </g>
        <g>
          <polygon class="st0" points="12.6 21.8 14.6 19.8 14.6 19.5 12.6 17.5 12.4 17.5 10.4 19.5 10.4 19.8 12.4 21.8 12.6 21.8"/>
          <polygon class="st0" points="7.7 21.8 9.7 19.8 9.7 19.5 7.7 17.5 7.4 17.5 5.4 19.5 5.4 19.8 7.4 21.8 7.7 21.8"/>
        </g>
        <path class="st0" d="M34.5,24.1h4.5v.3l-1.4,1.6v13.1c0,5.6-3.6,7.7-7.8,6.9v-1.1c2.9.5,4.7-1.7,4.7-5.5v-15.3h0Z"/>
        <path class="st0" d="M29,24.4v-.3h-4.5v13.6h-8.1c-1.3,0-2.3-1-2.3-2.3v-9.4l1.4-1.6v-.3h-7.1c-11.1,0-11.1,13.6.8,13.6v-.5c-8.4-1.1-7-12,.8-12h1v10.1c0,2,1.6,3.7,3.7,3.7h14.4v-.3l-1.4-1.6v-11.1l1.4-1.6h0Z"/>
        <g>
          <polygon class="st0" points="205.1 37.1 203.7 38.7 203.7 39 209.7 39 209.7 38.7 208.2 37.1 208.2 18.7 209.7 17.1 209.7 16.8 203.7 16.8 203.7 17.1 205.1 18.7 205.1 37.1"/>
          <polygon class="st0" points="155.6 42 153.6 44 153.6 44.2 155.6 46.2 155.9 46.2 157.9 44.2 157.9 44 155.9 42 155.6 42"/>
          <g>
            <polygon class="st0" points="146.4 46.2 148.4 44.2 148.4 44 146.4 42 146.1 42 144.1 44 144.1 44.2 146.1 46.2 146.4 46.2"/>
            <polygon class="st0" points="141.4 46.2 143.4 44.2 143.4 44 141.4 42 141.1 42 139.1 44 139.1 44.2 141.1 46.2 141.4 46.2"/>
          </g>
          <g>
            <polygon class="st0" points="130.7 21.8 132.7 19.8 132.7 19.5 130.7 17.5 130.5 17.5 128.5 19.5 128.5 19.8 130.5 21.8 130.7 21.8"/>
            <polygon class="st0" points="125.8 21.8 127.8 19.8 127.8 19.5 125.8 17.5 125.5 17.5 123.5 19.5 123.5 19.8 125.5 21.8 125.8 21.8"/>
          </g>
          <path class="st0" d="M201,17.1v-.3h-6v.3l1.4,1.6v19.1h-7.2c-1.5,0-2.9-.2-4.1-.5,4.6-2.7,6-7.3,6.4-10.1-2.2-1.1-5.2-1.8-8.5-1.8s-6.3.7-8.5,1.8c.4,2.8,1.8,7.5,6.4,10.1-1.2.4-2.6.5-4.1.5h-4.7c-2,0-3.9-1.2-4.8-3.1v-8.6l1.4-1.6v-.3h-4.5v15.3c0,3.8-1.8,6.1-4.8,5.5v1.1c4.3.8,7.9-1.3,7.9-6.9v-1.5c1.2.9,2.4,1.4,4.4,1.4h6.6c1.8,0,3.4-.3,4.8-.8,1.4.5,3,.8,4.8.8h13.2v-.3l-1.4-1.6v-18.4l1.4-1.6h0ZM178.1,27.8c3.4-1.3,6.5-1.3,9.9,0,0,3.3-1.6,6.7-4.9,8.5-3.4-1.9-4.9-5.3-4.9-8.5h0Z"/>
          <path class="st0" d="M158.7,24.4v-.3h-4.5v13.6h-4.1c-2,0-3.9-1.2-4.8-3.1v-8.6l1.4-1.6v-.3h-4.5v11.3c0,1.3-1,2.3-2.3,2.3h-5.4c-1.3,0-2.3-1-2.3-2.3v-9.4l1.4-1.6v-.3h-7.1c-11.1,0-11.1,13.6.8,13.6v-.5c-8.4-1.1-7-12,.8-12h1v10.1c0,2,1.6,3.7,3.7,3.7h8.9c1.3,0,2.5-.7,3.1-1.8,1.4,1.1,2.6,1.8,4.9,1.8h9.1v-.3l-1.4-1.6v-11.1l1.4-1.6h0Z"/>
        </g>
        <path class="st0" d="M247.1,24.4v-.3h-4.5v13.6h-8.1c-1.3,0-2.3-1-2.3-2.3v-9.4l1.4-1.6v-.3h-7.1c-11.1,0-11.1,13.6.8,13.6v-.5c-8.4-1.1-7-12,.8-12h1v10.1c0,2,1.6,3.7,3.7,3.7h14.4v-.3l-1.4-1.6v-11.1l1.4-1.6h0Z"/>
        <path class="st0" d="M344.9,17.1v-.3h-6v.3l1.4,1.6v19.1h-2.2c-12.2.2-8.8-20.1-24-12.4v1.1c10-3.6,9,7.5,16.4,11.3h-19.4c0-6.2-.8-12.4-6.8-12.4s-6.8,8.9-6.8,9.2c-.2,2.8-1.4,3.2-2.4,3.2h-7.8c2.1-1.3,3.3-3.2,4.2-5.3l-1.7-8.4-3.4-.6c-5.7,5.4-7.8,10.4-7.8,14.3h-5.7v-11.7l1.4-1.6v-.3h-5.8c-2.9,0-5.7,1.4-7.4,3.7-3.4,4.4-1.5,8.8-.6,11.2h8.6l.7-1.2v1.2c0,4.3-3.5,6.3-6.8,5.8l.2,1.2c1.3.1,4.6.9,7.4-1.6,1.5-1.4,2.4-3.3,2.4-5.4h5.8c.5,4.2,3.6,6.8,7,6.8h5.5l1.2-2c-.5-1.9-1.8-3.7-3.6-4.8h7.8c1.5,0,2.8-.7,3.5-1.9,1.4,1.2,2.7,1.9,5,1.9h2l.7-1.2v1.2h22l.7-1.2c1.5.8,3.3,1.2,5.7,1.2h8.6v-.3l-1.4-1.6v-18.4l1.4-1.6h0ZM269.9,37.8h-6.2c-.9-2.7-2.5-6.5,0-9.7,1.3-1.8,3.4-2.8,5.6-2.8h.5v12.5h0ZM287.2,24.6l1.5,8.5c-.1,1.6-1.3,3.5-3.3,4.7h-3.6c.2-4.7,3.4-10.7,5.4-13.2ZM289.1,44.6h-1c-3.8,0-5.5-2.2-6.1-4.5-.1-.4-.2-.8-.2-1.2h1.9c4.1,0,5.1,2.3,5.4,5.6h0ZM307.9,37.8h-2.2c-2,0-3.8-1.2-4.8-3v-.4c0-3.6.1-7.9,3.5-7.9s3.5,3.9,3.5,11.1h0c0,.1,0,.1,0,.1Z"/>
        <path class="st0" d="M101.1,17.1v-.3h-6v.3l1.4,1.6v19.1h-10.2c.6-.7.9-1.5.9-2.4v-9.3l1.4-1.6v-.3h-4.5v11.3c0,1.3-1,2.3-2.3,2.3h-4.1c.6-.7.9-1.5.9-2.4v-10h-3.1v10.1c0,1.3-1,2.3-2.3,2.3h-4.9c.6-.7.9-1.5.9-2.4v-8.7h-3.1v8.8c0,1.3-1,2.3-2.3,2.3h-8.9v-11.7l1.4-1.6v-.3h-5.8c-2.9,0-5.7,1.4-7.4,3.7-3.3,4.4-1.5,8.8-.6,11.2h8.6l.7-1.2v1.2c0,4.3-3.5,6.3-6.8,5.8l.2,1.2c1.3.1,4.6.9,7.4-1.6,1.5-1.4,2.4-3.3,2.4-5.4h10.7c1,0,1.9-.4,2.6-1.1,0,0,0,0,.1-.2l.7,1.2h5.9c1,0,1.9-.4,2.6-1.1,0,0,0,0,.1-.2l.7,1.2h5.1c1,0,1.9-.4,2.6-1.1,0,0,0,0,.1-.2l.7,1.2h14.1v-.3l-1.4-1.6v-18.4l1.4-1.6h0ZM51.9,37.8h-6.2c-.9-2.7-2.5-6.5,0-9.7,1.3-1.8,3.4-2.8,5.6-2.8h.5s0,12.5,0,12.5Z"/>
      </g>
    </g>
    <g>
      <path class="st1" d="M482,41.2c-.3.3-.6.6-1,.9l15.8,23.7-6-.8c-2-.3-3.7-1.4-4.6-3.1l-9.5-16.5c-.4.2-.8.5-1.1.7l15.2,27.6-6-1.2c-2-.4-3.6-1.7-4.5-3.5l-9.5-20.5c-.4.2-.8.3-1.3.5l9.9,22.5-4.6-.9c-2.2-.4-4-2-4.7-4.1l-5.8-16c-.4,0-.9.2-1.3.2l6.4,18.8-3.4-.7c-2.4-.5-4.2-2.2-4.9-4.6l-3.3-12.5h0c-.4.1-.8.2-1.3.4l3.8,15.5-2.5-.5c-2.6-.5-4.5-2.6-5-5.1l-1.4-7.9-2.4,5.5c-.3.6-.2,1.3.2,1.9l7.3,11c.1.2.2.3.2.5v2.1c.1,0,4.7,4.6,4.7,4.6h10.8v4.7l-2.3-2.3h-2.5l2.4,2.4-2.6,2.6v-2.6l-2.4-2.4h-2.3l-2.4,2.4v2.1l-2.8-2.8,2.4-2.4-4.3-4.3-1.5.2c-.2,0-.5,0-.7-.2l-9-6,6.5,8.7,10.3,13.9h-4.3c-2.5,0-4.7-1.4-5.7-3.7l-3.8-8.1c-.4.2-.7.3-1.1.5l6,15.3h-2.1c-3,0-5.7-2.2-6.2-5.2l-1.6-9c-.4,0-.7.1-1.1.2l1.4,10.7c.3,2.1-.5,4.1-2,5.5l-1.9,1.7-1.9-1.7c-1.5-1.4-2.3-3.4-2-5.5l1.4-10.7c-.4,0-.7,0-1.1-.2l-1.6,9c-.5,3-3.2,5.2-6.2,5.2h-2.1l6-15.3c-.4-.1-.7-.3-1.1-.5l-3.8,8.1c-1,2.2-3.3,3.7-5.7,3.7h-4.3l10.3-13.9,6.5-8.7-9,6c-.2.1-.5.2-.7.2l-1.5-.2-4.3,4.3,2.4,2.4-2.8,2.8v-2.1l-2.4-2.4h-2.3l-2.4,2.4v2.6l-2.6-2.6,2.4-2.4h-2.5l-2.3,2.3v-4.7h10.8l4.6-4.6v-2.1c.2-.2.2-.3.3-.5l7.3-11c.4-.5.4-1.2.2-1.9l-2.4-5.5h0l-1.4,7.9c-.4,2.6-2.4,4.6-5,5.1l-2.5.5,3.8-15.5c-.4-.1-.8-.3-1.3-.4l-3.3,12.5c-.6,2.3-2.5,4.1-4.9,4.6l-3.4.7,6.4-18.8c-.4,0-.9-.1-1.3-.2l-5.8,16.1c-.8,2.1-2.5,3.6-4.7,4.1l-4.6.9,9.9-22.5c-.4-.2-.8-.3-1.2-.5l-9.5,20.5c-.9,1.8-2.5,3.2-4.5,3.5l-6,1.2,15.2-27.6c-.4-.2-.8-.5-1.1-.7l-9.5,16.5c-1,1.7-2.7,2.9-4.6,3.1l-6,.8,15.8-23.7c-.3-.3-.7-.6-1-.9l-8.9,12.8c-1.1,1.6-2.9,2.6-4.8,2.7l-5.9.4,16-19.9c-.3-.3-.5-.7-.8-1.1l-8.9,10.7c-1.2,1.4-3,2.3-4.9,2.3h-5.9l28.4-29.6c1.5-1.6,3.6-2.5,5.9-2.5h6.3c1.7,0,3.1,1.4,3.1,3.1v3.6c0,2.9,1,5.5,2.6,7.7,2.3,3.1,6,5,10.1,5s1.8,0,2.7-.3c.7-.2,1.2-.7,1.4-1.3l2.2-8.1c0-.1,0-.3,0-.5-.1-1-1.5-1.6-3-1.4-1.2.2-2.1.9-2.4,1.6,0,0-.7-1.3-.7-2.3,0-1.2.5-1.9,1.7-2.5l2.1-1c1.3-1.2,3.5-2,5.9-2,3.7,0,6.8,1.9,7.2,4.3v.3s1.6,11.4,1.6,11.4c.1.8.7,1.5,1.5,1.6.7.1,1.4.2,2,.2,4.1,0,7.8-2,10.1-5,1.6-2.1,2.6-4.8,2.6-7.7v-3.6c0-1.7,1.4-3.1,3.1-3.1h6.3c2.2,0,4.3.9,5.9,2.5l28.4,29.6h-5.9c-1.9,0-3.6-.8-4.9-2.3l-8.9-10.7c-.3.4-.5.7-.8,1.1l16,19.9-5.9-.4c-1.9-.1-3.7-1.1-4.8-2.7l-8.9-12.8h0Z"/>
      <polygon class="st1" points="434.8 11.6 438.5 8.8 442.3 11.6 440.9 7.2 444.6 4.4 440 4.4 438.5 0 437.1 4.4 432.5 4.4 436.2 7.2 434.8 11.6"/>
      <polygon class="st1" points="453.5 11.7 455.9 15.6 456.3 11 460.8 9.9 456.6 8.2 457 3.5 453.9 7.1 449.6 5.2 452 9.2 449 12.7 453.5 11.7"/>
      <polygon class="st1" points="420.8 11 421.1 15.7 423.6 11.7 428.1 12.8 425.1 9.3 427.5 5.3 423.2 7.1 420.2 3.5 420.6 8.2 416.3 9.9 420.8 11"/>
    </g>
  </g>
</svg>