<?xml version="1.0" encoding="UTF-8"?>
<svg id="Layer_2" data-name="Layer 2" xmlns="http://www.w3.org/2000/svg" viewBox="0 0 506.01 101.38">
  <defs>
    <style>
      .cls-1 {
        fill: #b9a87b;
      }

      .cls-2 {
        fill: #092724;
      }
    </style>
  </defs>
  <g id="Layer_1-2" data-name="Layer 1">
    <g>
      <g>
        <path class="cls-2" d="M7.6,71.23c-2.55-1.78-4.24-2.95-4.24-5.35,0-1.84,1.35-3.07,3.37-3.07.98,0,2.72.23,4.27,2.7h.27v-3.25c-.31-.11-1.77-.69-4.34-.69-3.81,0-6.27,2.07-6.27,5.27,0,2.88,1.82,4.66,5.17,6.93,2.83,1.86,4.17,3.18,4.17,5.62,0,2.2-1.64,3.81-3.9,3.81-2.96,0-4.75-2.01-5.76-5.7h-.34v5.42c1.02.64,3.04,1.59,6.1,1.59,4.03,0,6.74-2.48,6.74-6.17,0-3.29-2.42-5.05-5.23-7.09Z"/>
        <polygon class="cls-2" points="325.98 62.23 327.43 63.84 327.43 82.27 325.98 83.87 325.98 84.16 331.97 84.16 331.97 83.87 330.52 82.27 330.52 63.84 331.97 62.23 331.97 61.95 325.98 61.95 325.98 62.23"/>
        <path class="cls-2" d="M353.49,79.59l-.02.02c-1.95,2.42-4.29,3.65-6.95,3.65-4.95,0-8.68-4.46-8.68-10.38,0-4.99,2.9-10.04,8.44-10.04,2.83,0,5.09,1.15,6.72,3.41l.02.03h.27v-3.72h-.05c-1.57-.46-4.03-.98-6.82-.98-3.54,0-6.59,1.23-8.82,3.55-2.06,2.14-3.19,5-3.19,8.06,0,6.57,5.05,11.34,12.01,11.34,4.19,0,7-1.38,7.3-1.54l.04-.02v-3.37h-.26Z"/>
        <path class="cls-2" d="M286.53,61.95h-4.39v.29l1.45,1.6v12.38c0,3.85-2.51,6.34-6.41,6.34-4.37,0-6.77-2.24-6.77-6.31v-12.42l1.45-1.6v-.29h-5.99v.29l1.45,1.6v12.45c0,5.24,3.4,8.24,9.34,8.24,4.97,0,8.44-3.39,8.44-8.24v-12.45l1.45-1.6v-.29Z"/>
        <polygon class="cls-2" points="89.79 64.74 89.79 82.27 88.34 83.87 88.34 84.16 92.73 84.16 92.73 83.87 91.29 82.27 91.29 66.42 107.04 84.16 108.2 84.16 108.2 63.84 109.64 62.23 109.64 61.95 105.26 61.95 105.26 62.23 106.7 63.84 106.7 79.35 91.45 61.95 87.22 61.95 87.22 62.23 89.79 64.74"/>
        <polygon class="cls-2" points="322.69 78.69 319.82 82.89 312.25 82.89 312.25 63.84 313.7 62.23 313.7 61.95 307.71 61.95 307.71 62.23 309.15 63.84 309.15 82.27 307.71 83.87 307.71 84.16 322.99 84.16 322.99 78.69 322.69 78.69"/>
        <polygon class="cls-2" points="57.88 82.27 56.43 83.87 56.43 84.16 62.42 84.16 62.42 83.87 60.97 82.27 60.97 63.84 62.42 62.23 62.42 61.95 56.43 61.95 56.43 62.23 57.88 63.84 57.88 82.27"/>
        <polygon class="cls-2" points="28.29 61.95 28.29 62.23 29.73 63.84 24.39 72.03 19.05 63.84 20.5 62.23 20.5 61.95 13.62 61.95 13.62 62.23 15.46 63.85 22.06 73.69 22.06 82.27 20.61 83.87 20.61 84.16 26.6 84.16 26.6 83.87 25.16 82.27 25.15 73.15 31.24 63.86 33.13 62.23 33.13 61.95 28.29 61.95"/>
        <path class="cls-2" d="M256.22,61.95h-7.25v.29l1.45,1.6v18.43l-1.45,1.6v.29h5.99v-.29l-1.44-1.6v-19.16s0,0,0,0h1.5c3.61,0,5.77,2.03,5.77,5.44,0,1.12-.25,4.92-5.87,5.75v.42c5.26.07,9.04-2.14,9.04-6.57,0-3.83-2.96-6.2-7.74-6.2Z"/>
        <polygon class="cls-2" points="245.3 79.42 242.97 82.89 235.39 82.89 235.39 72.95 242.23 72.95 243.98 74.53 244.27 74.53 244.27 70.14 243.98 70.14 242.23 71.72 235.39 71.72 235.39 63.18 242.3 63.18 244.5 65.98 244.8 65.98 244.8 61.95 230.85 61.95 230.85 62.23 232.29 63.84 232.29 82.27 230.85 83.87 230.85 84.16 245.6 84.16 245.6 79.42 245.3 79.42"/>
        <path class="cls-2" d="M155.89,78.99l-3.2-5.41c.68-.36,1.27-.83,1.75-1.38,1.64-1.89,2.06-4.52,1.07-6.71-1.03-2.25-3.3-3.55-6.24-3.55h-7.55v.29l1.45,1.6v18.43l-1.45,1.6v.29h5.99v-.29l-1.44-1.6v-7.87h3.14c.11,0,.2,0,.35-.02l3.57,6.14c2.43,4.29,4.94,4.06,7.16,3.62v-.3c-.83-.26-2.18-.81-4.58-4.86ZM149.23,73.26h-2.97v-10.16h2.07c3.39,0,4.71,2.7,4.71,5.11s-1.33,5.05-3.81,5.05Z"/>
        <polygon class="cls-2" points="83.89 82.28 76.75 61.95 73.25 61.95 66.69 82.29 65.26 83.87 65.26 84.16 69.58 84.16 69.58 83.87 68.13 82.27 74.17 63.42 77.75 73.62 70.84 73.62 71.11 74.85 78.18 74.85 80.79 82.27 79.34 83.87 79.34 84.16 85.33 84.16 85.33 83.87 83.89 82.28"/>
        <polygon class="cls-2" points="138.03 82.28 130.89 61.95 127.39 61.95 120.83 82.29 119.4 83.87 119.4 84.16 123.72 84.16 123.72 83.87 122.27 82.27 128.31 63.42 131.89 73.62 124.98 73.62 125.25 74.85 132.32 74.85 134.92 82.27 133.48 83.87 133.48 84.16 139.47 84.16 139.47 83.87 138.03 82.28"/>
        <polygon class="cls-2" points="180.12 82.28 172.97 61.95 169.48 61.95 162.91 82.29 161.49 83.87 161.49 84.16 165.8 84.16 165.8 83.87 164.36 82.27 170.4 63.42 173.98 73.62 167.07 73.62 167.34 74.85 174.41 74.85 177.01 82.27 175.57 83.87 175.57 84.16 181.56 84.16 181.56 83.87 180.12 82.28"/>
        <path class="cls-2" d="M49.76,78.99l-3.2-5.41c.68-.36,1.27-.83,1.75-1.38,1.64-1.89,2.06-4.52,1.07-6.71-1.03-2.25-3.3-3.55-6.24-3.55h-7.55v.29l1.45,1.6v18.43l-1.45,1.6v.29h5.99v-.29l-1.44-1.6v-19.16h2.07c3.39,0,4.71,2.7,4.71,5.11s-1.33,5.05-3.81,5.05h-3.03l.65,1.13h2.54c.11,0,.2,0,.35-.02l3.57,6.14c2.43,4.29,4.94,4.06,7.16,3.62v-.3c-.83-.26-2.18-.81-4.58-4.86Z"/>
        <path class="cls-2" d="M224.06,78.99l-3.2-5.41c.68-.36,1.27-.83,1.75-1.38,1.64-1.89,2.06-4.52,1.07-6.71-1.03-2.25-3.3-3.55-6.24-3.55h-7.55v.29l1.45,1.6v18.43l-1.45,1.6v.29h5.99v-.29l-1.44-1.6v-19.16h2.07c3.39,0,4.71,2.7,4.71,5.11s-1.33,5.05-3.81,5.05h-3.03l.65,1.13h2.54c.11,0,.2,0,.35-.02l3.57,6.14c2.43,4.29,4.94,4.06,7.16,3.62v-.3c-.83-.26-2.18-.81-4.58-4.86Z"/>
        <path class="cls-2" d="M193.69,72.13c2.45-.95,4.09-3.64,3.69-6.14-.19-1.22-1.22-4.05-6.59-4.05h-6.98v.29l1.45,1.6v18.43l-1.45,1.6v.29h7.61c5.1,0,7.9-3.14,8.04-6.23.11-2.56-1.63-5.31-5.78-5.79ZM190.22,63.11c1.45,0,2.56.42,3.31,1.25.8.9.97,2.03.97,2.83,0,2.29-1.42,4.84-3.31,4.84h-2.84v-8.93h1.87ZM191.53,83.03c-1.41,0-2.5-.33-3.17-.61v-10.27l.61,1.06h1.83c1.78,0,3.24.51,4.21,1.46.84.83,1.3,1.98,1.3,3.25,0,2.51-1.79,5.11-4.78,5.11Z"/>
        <path class="cls-2" d="M299.45,72.13c2.45-.95,4.09-3.64,3.69-6.14-.19-1.22-1.22-4.05-6.59-4.05h-6.98v.29l1.45,1.6v18.43l-1.45,1.6v.29h7.61c5.1,0,7.9-3.14,8.04-6.23.11-2.56-1.63-5.31-5.78-5.79ZM295.99,63.11c1.45,0,2.56.42,3.31,1.25.8.9.97,2.03.97,2.83,0,2.29-1.42,4.84-3.31,4.84h-2.84v-8.93h1.87ZM297.29,83.03c-1.41,0-2.5-.33-3.17-.61v-10.27l.61,1.06h1.83c1.78,0,3.24.51,4.21,1.46.84.83,1.3,1.98,1.3,3.25,0,2.51-1.79,5.11-4.78,5.11Z"/>
      </g>
      <g>
        <polygon class="cls-2" points="319.93 43.99 319.93 44.24 321.94 46.25 322.19 46.25 324.2 44.24 324.2 43.99 322.19 41.98 321.94 41.98 319.93 43.99"/>
        <g>
          <polygon class="cls-2" points="243.93 41.98 241.92 43.99 241.92 44.24 243.93 46.25 244.18 46.25 246.19 44.24 246.19 43.99 244.18 41.98 243.93 41.98"/>
          <polygon class="cls-2" points="241.23 44.24 241.23 43.99 239.23 41.98 238.97 41.98 236.96 43.99 236.96 44.24 238.97 46.25 239.23 46.25 241.23 44.24"/>
        </g>
        <g>
          <polygon class="cls-2" points="230.65 21.79 232.65 19.78 232.65 19.53 230.65 17.52 230.39 17.52 228.38 19.53 228.38 19.78 230.39 21.79 230.65 21.79"/>
          <polygon class="cls-2" points="225.69 21.79 227.7 19.78 227.7 19.53 225.69 17.52 225.43 17.52 223.43 19.53 223.43 19.78 225.43 21.79 225.69 21.79"/>
        </g>
        <polygon class="cls-2" points="349.21 37.13 347.77 38.73 347.77 39.02 353.75 39.02 353.75 38.73 352.31 37.13 352.31 18.71 353.75 17.11 353.75 16.82 347.77 16.82 347.77 17.11 349.21 18.71 349.21 37.13"/>
        <path class="cls-2" d="M252.53,24.12h4.54v.29l-1.44,1.6v13.13c0,5.64-3.58,7.72-7.77,6.93l-.14-1.14c2.99.55,4.82-1.68,4.82-5.52v-15.29Z"/>
        <polygon class="cls-2" points="105.21 37.13 103.77 38.73 103.77 39.02 109.75 39.02 109.75 38.73 108.31 37.13 108.31 18.71 109.75 17.11 109.75 16.82 103.77 16.82 103.77 17.11 105.21 18.71 105.21 37.13"/>
        <g>
          <polygon class="cls-2" points="25.92 41.98 23.91 43.99 23.91 44.24 25.92 46.25 26.17 46.25 28.18 44.24 28.18 43.99 26.17 41.98 25.92 41.98"/>
          <polygon class="cls-2" points="23.23 44.24 23.23 43.99 21.22 41.98 20.96 41.98 18.96 43.99 18.96 44.24 20.96 46.25 21.22 46.25 23.23 44.24"/>
        </g>
        <g>
          <polygon class="cls-2" points="12.64 21.79 14.65 19.78 14.65 19.53 12.64 17.52 12.38 17.52 10.38 19.53 10.38 19.78 12.38 21.79 12.64 21.79"/>
          <polygon class="cls-2" points="7.68 21.79 9.69 19.78 9.69 19.53 7.68 17.52 7.43 17.52 5.42 19.53 5.42 19.78 7.43 21.79 7.68 21.79"/>
        </g>
        <path class="cls-2" d="M34.5,24.12h4.54v.29l-1.44,1.6v13.13c0,5.64-3.58,7.72-7.77,6.93l-.14-1.14c2.99.55,4.82-1.68,4.82-5.52v-15.29Z"/>
        <path class="cls-2" d="M29.04,24.41v-.29h-4.54v13.63h-8.13c-1.28,0-2.31-1.04-2.31-2.31v-9.43l1.44-1.6v-.29h-7.07c-11.05,0-11.05,13.58.76,13.58v-.45c-8.42-1.07-6.99-12.02.8-12.02h.98v10.11c0,2.03,1.64,3.67,3.67,3.67h14.41s0-.29,0-.29l-1.44-1.6v-11.11l1.44-1.6Z"/>
        <g>
          <polygon class="cls-2" points="205.13 37.13 203.69 38.73 203.69 39.02 209.67 39.02 209.67 38.73 208.23 37.13 208.23 18.71 209.67 17.11 209.67 16.82 203.69 16.82 203.69 17.11 205.13 18.71 205.13 37.13"/>
          <polygon class="cls-2" points="155.6 41.98 153.6 43.99 153.6 44.24 155.6 46.25 155.86 46.25 157.87 44.24 157.87 43.99 155.86 41.98 155.6 41.98"/>
          <g>
            <polygon class="cls-2" points="146.35 46.25 148.36 44.24 148.36 43.99 146.35 41.98 146.09 41.98 144.09 43.99 144.09 44.24 146.09 46.25 146.35 46.25"/>
            <polygon class="cls-2" points="141.4 46.25 143.4 44.24 143.4 43.99 141.4 41.98 141.14 41.98 139.13 43.99 139.13 44.24 141.14 46.25 141.4 46.25"/>
          </g>
          <g>
            <polygon class="cls-2" points="130.73 21.79 132.73 19.78 132.73 19.53 130.73 17.52 130.47 17.52 128.46 19.53 128.46 19.78 130.47 21.79 130.73 21.79"/>
            <polygon class="cls-2" points="125.77 21.79 127.78 19.78 127.78 19.53 125.77 17.52 125.51 17.52 123.51 19.53 123.51 19.78 125.51 21.79 125.77 21.79"/>
          </g>
          <path class="cls-2" d="M200.98,17.11v-.29h-5.99v.29l1.44,1.6v19.05h-7.19c-1.52,0-2.87-.18-4.06-.54,4.57-2.65,6-7.28,6.37-10.12-2.17-1.09-5.17-1.76-8.49-1.76s-6.31.67-8.49,1.76c.36,2.84,1.8,7.48,6.37,10.12-1.21.37-2.59.54-4.14.54h-4.68c-2,0-3.86-1.25-4.82-3.1v-8.64l1.44-1.6v-.29h-4.54v15.29c0,3.84-1.83,6.07-4.82,5.52l.14,1.14c4.19.79,7.77-1.29,7.77-6.93v-1.5c1.17.87,2.38,1.38,4.37,1.38h6.65c1.77,0,3.35-.3,4.75-.82,1.4.51,2.98.82,4.75.82h13.16s0-.29,0-.29l-1.44-1.6v-18.42l1.44-1.6ZM178.15,27.77c3.38-1.34,6.47-1.34,9.85,0,0,3.27-1.57,6.66-4.92,8.54-3.35-1.88-4.92-5.27-4.92-8.54Z"/>
          <path class="cls-2" d="M158.73,24.41v-.29h-4.54v13.63h-4.07c-2,0-3.86-1.25-4.82-3.1v-8.64l1.44-1.6v-.29h-4.54v11.32c0,1.28-1.03,2.31-2.31,2.31h-5.43c-1.28,0-2.31-1.03-2.31-2.31v-9.43l1.44-1.6v-.29h-7.07c-11.05,0-11.05,13.58.76,13.58v-.45c-8.42-1.07-6.99-12.02.8-12.02h.98v10.11c0,2.03,1.64,3.67,3.67,3.67h8.9c1.34,0,2.51-.72,3.15-1.79,1.36,1.11,2.61,1.79,4.89,1.79h9.07s0-.29,0-.29l-1.44-1.6v-11.11l1.44-1.6Z"/>
        </g>
        <path class="cls-2" d="M247.05,24.41v-.29h-4.54v13.63h-8.13c-1.28,0-2.31-1.04-2.31-2.31v-9.43l1.44-1.6v-.29h-7.07c-11.05,0-11.05,13.58.76,13.58v-.45c-8.42-1.07-6.99-12.02.8-12.02h.98v10.11c0,2.03,1.64,3.67,3.67,3.67h14.41s0-.29,0-.29l-1.44-1.6v-11.11l1.44-1.6Z"/>
        <path class="cls-2" d="M344.88,17.11v-.29h-5.99v.29l1.44,1.6v19.05h-2.19c-12.24.19-8.81-20.15-23.97-12.42v1.11c10.04-3.64,9.04,7.46,16.44,11.31h-19.39c-.08-6.17-.76-12.42-6.77-12.42-6.31,0-6.76,8.87-6.76,9.2-.16,2.78-1.41,3.22-2.39,3.22h-7.84c2.06-1.27,3.29-3.2,4.2-5.3l-1.7-8.37-3.43-.64c-5.7,5.44-7.83,10.42-7.84,14.31h-5.7v-11.74l1.44-1.6v-.29h-5.76c-2.91,0-5.66,1.35-7.43,3.67-3.35,4.37-1.5,8.76-.59,11.23h8.57l.67-1.16v1.16c0,4.3-3.49,6.31-6.84,5.79l.16,1.2c1.29.13,4.57.93,7.41-1.62,1.52-1.37,2.38-3.32,2.37-5.37h5.77c.51,4.2,3.62,6.81,7.05,6.81h5.49l1.24-2c-.45-1.91-1.8-3.73-3.61-4.82h7.75c1.54,0,2.81-.66,3.53-1.9,1.41,1.18,2.67,1.9,5.02,1.9h2.02l.67-1.16v1.16h22.01s.72-1.24.72-1.24c1.49.77,3.33,1.24,5.66,1.24h8.56s0-.29,0-.29l-1.44-1.6v-18.42l1.44-1.6ZM269.9,37.75h-6.2c-.94-2.67-2.47-6.45.05-9.74,1.34-1.75,3.42-2.78,5.62-2.78h.53v12.52ZM287.22,24.56l1.45,8.49c-.15,1.58-1.28,3.53-3.28,4.71h-3.57c.17-4.67,3.37-10.68,5.4-13.2ZM289.14,44.63h-.97c-3.84,0-5.51-2.23-6.12-4.45-.1-.37-.16-.76-.2-1.16h1.91c4.11,0,5.12,2.33,5.38,5.62ZM307.94,37.75h-2.23c-1.98,0-3.83-1.23-4.8-3.05,0-.12,0-.24,0-.37,0-3.61.1-7.86,3.51-7.86s3.51,3.93,3.51,11.14v.14Z"/>
        <path class="cls-2" d="M101.06,17.11v-.29h-5.99v.29l1.44,1.6v19.05h-10.19c.58-.67.9-1.52.9-2.41v-9.33l1.44-1.6v-.29h-4.54v11.32c0,1.28-1.03,2.31-2.31,2.31h-4.05c.58-.67.9-1.52.9-2.41v-9.96h-3.1v10.06c0,1.28-1.03,2.31-2.31,2.31h-4.88c.58-.67.9-1.52.9-2.41v-8.7h-3.1v8.79c0,1.28-1.03,2.31-2.31,2.31h-8.92v-11.74l1.44-1.6v-.29h-5.76c-2.91,0-5.66,1.35-7.43,3.67-3.35,4.37-1.5,8.76-.59,11.23h8.57s.67-1.16.67-1.16v1.16c0,4.3-3.49,6.31-6.84,5.79l.16,1.2c1.29.13,4.57.93,7.41-1.62,1.52-1.37,2.38-3.32,2.37-5.37h10.66c.97,0,1.91-.39,2.6-1.07.05-.05.09-.1.14-.15l.71,1.23h5.95c.97,0,1.91-.39,2.6-1.07.05-.05.09-.1.14-.15l.71,1.23h5.11c.97,0,1.91-.39,2.6-1.07.05-.05.09-.1.14-.15l.71,1.22h14.05s0-.29,0-.29l-1.44-1.6v-18.42l1.44-1.6ZM51.87,37.75h-6.2c-.94-2.67-2.47-6.45.05-9.74,1.34-1.75,3.42-2.78,5.62-2.78h.53v12.52Z"/>
      </g>
    </g>
    <g>
      <path class="cls-1" d="M481.97,41.15c-.32.31-.65.62-.99.91l15.84,23.67-6.02-.8c-1.95-.26-3.67-1.42-4.64-3.12l-9.45-16.51c-.38.24-.75.48-1.14.7l15.16,27.6-6.03-1.22c-1.97-.4-3.64-1.71-4.49-3.54l-9.46-20.47c-.41.17-.83.33-1.26.48l9.91,22.46-4.6-.93c-2.17-.44-3.95-1.97-4.7-4.06l-5.78-16.05c-.44.09-.88.16-1.32.24l6.39,18.79-3.44-.69c-2.36-.48-4.24-2.25-4.86-4.58l-3.29-12.46h0c-.42.12-.84.24-1.26.38l3.81,15.53-2.46-.5c-2.56-.52-4.53-2.55-4.98-5.12l-1.36-7.9-2.35,5.47c-.26.61-.2,1.31.17,1.86l7.26,10.95c.1.15.16.32.17.51l.14,2.07,4.57,4.58h10.76v4.7l-2.29-2.3h-2.52l2.4,2.4-2.61,2.62v-2.62l-2.4-2.4h-2.31l-2.4,2.4v2.07l-2.79-2.8,2.43-2.37-4.27-4.28-1.54.17c-.24.03-.49-.03-.69-.17l-8.98-5.98,6.45,8.73,10.27,13.89h-4.33c-2.46,0-4.69-1.43-5.73-3.66l-3.77-8.11c-.36.16-.72.32-1.08.46l6.05,15.26h-2.09c-3.05,0-5.67-2.18-6.21-5.19l-1.63-8.96c-.36.06-.71.12-1.08.16l1.36,10.7c.26,2.06-.5,4.11-2.04,5.5l-1.93,1.74-1.93-1.74c-1.54-1.39-2.3-3.44-2.04-5.5l1.36-10.7c-.36-.04-.72-.1-1.08-.16l-1.63,8.96c-.55,3.01-3.16,5.19-6.21,5.19h-2.09l6.05-15.26c-.36-.14-.72-.3-1.08-.46l-3.77,8.11c-1.04,2.23-3.27,3.66-5.73,3.66h-4.33l10.27-13.89,6.45-8.72-8.98,5.97c-.2.14-.45.19-.69.17l-1.54-.17-4.27,4.28,2.43,2.37-2.79,2.8v-2.07l-2.4-2.4h-2.31l-2.4,2.4v2.62l-2.61-2.62,2.4-2.4h-2.52l-2.29,2.3v-4.7h10.76l4.57-4.58.15-2.07c.01-.18.07-.35.17-.5l7.26-10.95c.37-.55.43-1.25.17-1.86l-2.36-5.47h0l-1.36,7.9c-.44,2.57-2.42,4.61-4.98,5.12l-2.46.49,3.81-15.54c-.41-.14-.84-.26-1.26-.38l-3.29,12.46c-.62,2.33-2.5,4.11-4.86,4.58l-3.44.69,6.4-18.79c-.44-.07-.88-.14-1.32-.23l-5.78,16.06c-.75,2.08-2.53,3.62-4.7,4.06l-4.6.93,9.9-22.47c-.42-.15-.84-.31-1.25-.48l-9.46,20.47c-.85,1.83-2.51,3.15-4.49,3.54l-6.03,1.22,15.17-27.6c-.39-.22-.77-.46-1.14-.7l-9.46,16.52c-.98,1.71-2.69,2.86-4.64,3.12l-6.02.81,15.84-23.68c-.34-.29-.67-.6-.99-.91l-8.92,12.84c-1.1,1.58-2.85,2.57-4.77,2.7l-5.92.39,16-19.91c-.28-.35-.55-.71-.81-1.08l-8.88,10.66c-1.2,1.44-2.98,2.27-4.85,2.27h-5.89l28.36-29.6c1.53-1.59,3.64-2.5,5.85-2.5h6.33c1.69,0,3.06,1.37,3.06,3.07v3.58c0,2.88.96,5.54,2.58,7.67,2.31,3.05,5.97,5.02,10.09,5.02.92,0,1.81-.1,2.67-.28.69-.15,1.24-.66,1.43-1.33l2.25-8.14c.03-.14.04-.3.01-.45-.15-.99-1.49-1.6-2.98-1.37-1.2.18-2.13.85-2.38,1.61,0,0-.67-1.3-.68-2.26-.02-1.25.52-1.94,1.72-2.55l2.09-.98c1.32-1.21,3.47-2,5.9-2,3.74,0,6.83,1.86,7.22,4.27l.04.29,1.51,11.42c.11.82.74,1.47,1.55,1.6.66.11,1.35.17,2.04.17,4.12,0,7.78-1.97,10.09-5.02,1.62-2.13,2.58-4.79,2.58-7.67v-3.58c0-1.69,1.37-3.07,3.06-3.07h6.33c2.21,0,4.32.9,5.85,2.5l28.36,29.6h-5.89c-1.87,0-3.65-.83-4.85-2.27l-8.88-10.66c-.26.36-.53.72-.81,1.08l16,19.91-5.92-.39c-1.92-.13-3.67-1.12-4.77-2.7l-8.92-12.84Z"/>
      <polygon class="cls-1" points="434.8 11.57 438.55 8.83 442.29 11.57 440.86 7.15 444.61 4.42 439.98 4.42 438.55 0 437.11 4.42 432.48 4.42 436.23 7.15 434.8 11.57"/>
      <polygon class="cls-1" points="453.53 11.68 455.93 15.65 456.32 11.02 460.83 9.95 456.56 8.16 456.95 3.53 453.92 7.05 449.64 5.25 452.05 9.22 449.02 12.74 453.53 11.68"/>
      <polygon class="cls-1" points="420.77 11.03 421.12 15.66 423.56 11.71 428.06 12.82 425.06 9.27 427.5 5.32 423.21 7.08 420.22 3.53 420.56 8.16 416.27 9.92 420.77 11.03"/>
    </g>
  </g>
</svg>